<svg width="65" height="73" viewBox="0 0 65 73" fill="none" xmlns="http://www.w3.org/2000/svg">
<g clip-path="url(#clip0_676_18807)">
<path d="M64.0334 20.1207C64.0334 19.2665 63.6063 18.4733 62.8741 18.0462L47.3758 9.1987C47.0707 9.01565 46.5826 8.89361 46.2165 8.89361C45.8504 8.89361 45.4232 9.01565 45.0571 9.1987L31.5114 17.0089L37.6131 3.52412L33.5859 1.20548C33.2809 1.02242 32.7927 0.900391 32.4266 0.900391C32.0605 0.900391 31.6334 1.02242 31.2673 1.26649L15.891 10.0529C15.1588 10.4801 14.7317 11.2733 14.7317 12.1275V27.8089L6.0673 15.7275L2.04018 18.0462C1.30798 18.4733 0.880859 19.2665 0.880859 20.1207L0.941876 37.7546C0.941876 38.6089 1.369 39.4021 2.1012 39.8292L15.647 47.7004L3.01645 48.9207C1.79611 49.0428 0.880859 49.1038 0.880859 49.1038V53.436C0.880859 54.4733 1.43001 55.3885 2.28425 55.8767L17.5995 64.6021C17.9046 64.7851 18.3317 64.9072 18.7588 64.9072C19.1249 64.9072 19.552 64.7851 19.9182 64.6021L33.4639 56.7919L27.3012 70.2767L31.3283 72.5953C31.6334 72.7784 32.0605 72.9004 32.4876 72.9004C32.8537 72.9004 33.2809 72.8394 33.647 72.5953L49.0232 63.7478C49.7554 63.3207 50.1826 62.5275 50.1826 61.6733V46.0529L58.847 58.1953L62.8741 55.8767C63.6063 55.4495 64.0334 54.6563 64.0334 53.8021L63.9724 36.0462C63.9724 35.1919 63.5453 34.3987 62.8131 33.9716L49.2673 26.1614L64.0334 24.758V20.1207Z" fill="#1C1D20"/>
</g>
<defs>
<clipPath id="clip0_676_18807">
<rect width="63.1526" height="72" fill="white" transform="translate(0.880859 0.900391)"/>
</clipPath>
</defs>
</svg>
