<svg width="548" height="240" viewBox="0 0 548 240" fill="none" xmlns="http://www.w3.org/2000/svg">
<g clip-path="url(#clip0_638_564)">
<path d="M450.781 145.05V92.8545H489.06V102.914H463.936V113.489H485.543V123.138H463.936V134.826H489.06V145.038H450.781V145.05ZM369.288 145.05L349.216 117.569C348.325 116.361 346.485 113.84 345.16 110.933L344.527 111.074V145.05H331.373V92.8545H344.386L364.751 120.617C365.56 121.778 367.565 124.755 368.514 127.1L369.159 126.971V92.8545H382.313V145.05H369.288ZM247.64 145.05L227.569 117.569C226.677 116.361 224.837 113.852 223.512 110.933L222.879 111.074V145.05H209.725V92.8545H222.727L243.091 120.617C244.346 122.411 246.01 125.013 246.854 127.229L247.499 127.112V92.8545H260.654V145.05H247.64Z" fill="#1C1D20"/>
<path d="M416.688 146.562C400.743 146.562 389.594 135.283 389.594 119.139C389.594 102.995 400.743 91.5762 416.688 91.5762C430.921 91.5762 441.789 101.014 443.864 115.094H431.378C430.124 107.626 424.133 102.433 416.688 102.433C407.953 102.433 402.092 109.15 402.092 119.139C402.092 129.128 407.953 135.705 416.688 135.705C424.555 135.705 430.557 130.101 431.39 122.047H443.887C442.75 136.725 431.87 146.562 416.688 146.562Z" fill="#1C1D20"/>
<path fill-rule="evenodd" clip-rule="evenodd" d="M295.942 146.562C279.201 146.562 267.523 135.283 267.523 119.139C267.523 102.995 279.212 91.5762 295.942 91.5762C312.672 91.5762 324.502 103.429 324.502 119.139C324.502 134.849 312.485 146.562 295.942 146.562ZM295.942 102.433C286.704 102.433 280.244 109.303 280.244 119.139C280.244 128.976 286.845 135.705 295.942 135.705C305.04 135.705 311.5 128.741 311.5 119.139C311.5 109.537 304.817 102.433 295.942 102.433Z" fill="#1C1D20"/>
</g>
<path d="M59.6861 93.3952V114.173L51.2343 109.304C50.1583 108.686 49.4902 107.529 49.4902 106.289V86.8746C49.4902 85.2545 50.3649 83.7416 51.7709 82.9329L59.4956 78.4823L76.0559 101.608V71.5627C76.0559 69.9426 76.9306 68.4296 78.3366 67.6209L86.2518 63.0605V108.694C86.2518 109.934 85.5837 111.088 84.5078 111.709L76.2437 116.47L59.6888 93.3979L59.6861 93.3952Z" fill="#1C1D20"/>
<path d="M70.3755 165.605C69.7637 165.605 69.16 165.444 68.6315 165.139L52.2023 155.672C50.5325 154.71 49.5034 152.93 49.5034 151.002V142.566C49.5034 142.566 51.2743 142.415 53.6247 142.187L77.8534 139.836L51.7814 124.814C50.3727 124.005 49.498 122.495 49.498 120.874V111.751L89.093 134.566C90.169 135.185 90.8371 136.342 90.8371 137.581V147.107L62.5381 149.881L80.566 160.268L72.1168 165.139C71.5883 165.444 70.9846 165.605 70.3728 165.605H70.3755Z" fill="#1C1D20"/>
<path d="M110.142 188.34C109.342 188.34 108.554 188.128 107.861 187.729L100.137 183.279L111.924 157.403L85.8516 172.426C85.1593 172.825 84.3705 173.036 83.5709 173.036C82.7713 173.036 81.9825 172.825 81.2902 172.426L73.375 167.865L112.973 145.05C113.501 144.745 114.105 144.584 114.717 144.584C115.328 144.584 115.932 144.745 116.461 145.05L124.725 149.811L112.983 175.658L131.011 165.27V175.01C131.011 176.25 130.346 177.406 129.27 178.025L112.423 187.732C111.73 188.131 110.942 188.343 110.142 188.343V188.34Z" fill="#1C1D20"/>
<path d="M134.006 129.652C134.006 128.413 134.674 127.258 135.75 126.637L144.014 121.876L160.569 144.948V124.171L169.02 129.039C170.096 129.66 170.764 130.815 170.764 132.054V151.469C170.764 153.089 169.89 154.602 168.484 155.411L160.759 159.861L144.199 136.735V166.781C144.199 168.401 143.324 169.914 141.918 170.723L134.003 175.283V129.65L134.006 129.652Z" fill="#1C1D20"/>
<path d="M131.165 103.773C130.089 103.152 129.421 101.998 129.421 100.758V91.2329L157.72 88.4587L139.692 78.0713L148.141 73.2003C148.67 72.895 149.273 72.7344 149.885 72.7344C150.497 72.7344 151.101 72.895 151.629 73.2003L168.477 82.9075C169.883 83.7189 170.757 85.2292 170.757 86.8493V95.7505L142.41 98.5006L168.482 113.523C169.888 114.335 170.763 115.845 170.763 117.465V126.586L131.165 103.771V103.773Z" fill="#1C1D20"/>
<path d="M105.54 93.7587C104.928 93.7587 104.324 93.598 103.796 93.2928L95.5317 88.5315L107.273 62.685L89.2451 73.0723V63.333C89.2451 62.0932 89.9105 60.9363 90.9865 60.3177L107.834 50.6105C108.526 50.2115 109.315 50 110.115 50C110.914 50 111.703 50.2115 112.395 50.6105L120.12 55.0611L108.333 80.9372L134.405 65.9144C135.097 65.5154 135.886 65.3039 136.686 65.3039C137.485 65.3039 138.274 65.5154 138.966 65.9144L146.881 70.4748L107.284 93.2901C106.755 93.5954 106.152 93.756 105.54 93.756V93.7587Z" fill="#1C1D20"/>
<defs>
<clipPath id="clip0_638_564">
<rect width="279.335" height="54.9855" fill="white" transform="translate(209.725 91.5762)"/>
</clipPath>
</defs>
</svg>
